<?xml version="1.0" encoding="UTF-8" standalone="no"?>
<!-- Created with Inkscape (http://www.inkscape.org/) -->

<svg
   width="96mm"
   height="96mm"
   viewBox="0 0 96.000001 96"
   version="1.1"
   id="svg5"
   sodipodi:docname="KUWP.svg"
   inkscape:version="1.2.2 (b0a84865, 2022-12-01)"
   inkscape:export-filename="KUWP.png"
   inkscape:export-xdpi="12.7"
   inkscape:export-ydpi="12.7"
   xmlns:inkscape="http://www.inkscape.org/namespaces/inkscape"
   xmlns:sodipodi="http://sodipodi.sourceforge.net/DTD/sodipodi-0.dtd"
   xmlns="http://www.w3.org/2000/svg"
   xmlns:svg="http://www.w3.org/2000/svg">
  <sodipodi:namedview
     id="namedview1981"
     pagecolor="#ffffff"
     bordercolor="#000000"
     borderopacity="0.25"
     inkscape:showpageshadow="2"
     inkscape:pageopacity="0.0"
     inkscape:pagecheckerboard="0"
     inkscape:deskcolor="#d1d1d1"
     inkscape:document-units="mm"
     showgrid="false"
     inkscape:zoom="2.2405809"
     inkscape:cx="164.01996"
     inkscape:cy="194.36924"
     inkscape:window-width="1800"
     inkscape:window-height="1097"
     inkscape:window-x="31"
     inkscape:window-y="69"
     inkscape:window-maximized="0"
     inkscape:current-layer="layer1"
     showguides="true">
    <sodipodi:guide
       position="-9.9999995e-07,1.5304529"
       orientation="0.70710678,-0.70710678"
       id="guide1043"
       inkscape:locked="false" />
    <sodipodi:guide
       position="0,96"
       orientation="-0.70710678,-0.70710678"
       id="guide1045"
       inkscape:locked="false" />
    <sodipodi:guide
       position="87.048622,54.565963"
       orientation="1,0"
       id="guide1047"
       inkscape:locked="false" />
  </sodipodi:namedview>
  <defs
     id="defs2">
    <marker
       style="overflow:visible"
       id="RoundedArrow"
       refX="0"
       refY="0"
       orient="auto-start-reverse"
       markerWidth="11.140143"
       markerHeight="10.769231"
       viewBox="0 0 6.1347524 5.9304952"
       preserveAspectRatio="xMidYMid"
       markerUnits="userSpaceOnUse">
      <path
         d="m 3.4825543,-2.873901 -4.4956038,2.24780197 a 0.7,0.7 0 0 0 0,1.25219806 L 3.4825543,2.873901 A 0.8652476,0.8652476 0 0 0 4.7347524,2.1 V -2.1 A 0.8652476,0.8652476 0 0 0 3.4825543,-2.873901 Z"
         style="fill:context-stroke;fill-rule:evenodd;stroke:none;stroke-width:0.7"
         id="path1367" />
    </marker>
    <marker
       style="overflow:visible"
       id="RoundedArrow-4"
       refX="0"
       refY="0"
       orient="auto-start-reverse"
       markerWidth="14.880446"
       markerHeight="14.385"
       viewBox="0 0 6.1347524 5.9304951"
       preserveAspectRatio="xMidYMid"
       markerUnits="userSpaceOnUse">
      <path
         transform="scale(0.7)"
         d="m -0.21114562,-4.1055728 6.42229122,3.21114561 a 1,1 90 0 1 0,1.78885438 L -0.21114562,4.1055728 A 1.236068,1.236068 31.717474 0 1 -2,3 v -6 a 1.236068,1.236068 148.28253 0 1 1.78885438,-1.1055728 z"
         style="fill:context-stroke;fill-rule:evenodd;stroke:none"
         id="path1367-9" />
    </marker>
    <marker
       style="overflow:visible"
       id="RoundedArrow-7"
       refX="0"
       refY="0"
       orient="auto-start-reverse"
       markerWidth="16"
       markerHeight="16"
       viewBox="0 0 6.1347524 5.9304951"
       preserveAspectRatio="xMidYMid"
       markerUnits="userSpaceOnUse">
      <path
         transform="scale(0.7)"
         d="m -0.21114562,-4.1055728 6.42229122,3.21114561 a 1,1 90 0 1 0,1.78885438 L -0.21114562,4.1055728 A 1.236068,1.236068 31.717474 0 1 -2,3 v -6 a 1.236068,1.236068 148.28253 0 1 1.78885438,-1.1055728 z"
         style="fill:context-stroke;fill-rule:evenodd;stroke:none"
         id="path1367-5" />
    </marker>
    <marker
       style="overflow:visible"
       id="RoundedArrow-4-2"
       refX="0"
       refY="0"
       orient="auto-start-reverse"
       markerWidth="14.880446"
       markerHeight="14.385"
       viewBox="0 0 6.1347524 5.9304951"
       preserveAspectRatio="xMidYMid"
       markerUnits="userSpaceOnUse">
      <path
         transform="scale(0.7)"
         d="m -0.21114562,-4.1055728 6.42229122,3.21114561 a 1,1 90 0 1 0,1.78885438 L -0.21114562,4.1055728 A 1.236068,1.236068 31.717474 0 1 -2,3 v -6 a 1.236068,1.236068 148.28253 0 1 1.78885438,-1.1055728 z"
         style="fill:context-stroke;fill-rule:evenodd;stroke:none"
         id="path1367-9-2" />
    </marker>
  </defs>
  <g
     id="layer1"
     transform="translate(-38.085805,-27.270913)">
    <circle
       style="display:none;fill:none;stroke:#ff045a;stroke-width:0.7;stroke-dasharray:none;stroke-opacity:1"
       id="path1234"
       cx="76.452332"
       cy="86.205513"
       r="20.135592" />
    <circle
       style="display:none;fill:none;stroke:#ff045a;stroke-width:0.7;stroke-dasharray:none;stroke-opacity:1"
       id="path1234-4"
       cx="89.666313"
       cy="47.822033"
       r="20.135592" />
    <path
       style="fill:none;stroke:#0240f6;stroke-width:3.45704;stroke-dasharray:none;stroke-opacity:1;marker-start:url(#RoundedArrow-7)"
       d="M 60.492084,82.679832 C 51.750976,103.50497 76.996368,112.44855 87.921079,100.62147 96.130348,91.73414 94.884226,79.97336 87.619663,70.825529 79.294551,60.34221 69.941582,55.159568 72.548786,41.67035 73.990721,34.210032 80.084224,27.573344 93.648013,29.175276"
       id="path1642"
       sodipodi:nodetypes="csssc" />
    <path
       style="fill:#ffffff;stroke:#fd0303;stroke-width:2.96318;stroke-dasharray:none;stroke-opacity:1;marker-end:url(#RoundedArrow-4)"
       d="m 109.09517,87.485633 12.5044,-0.120251"
       id="path2016-1"
       sodipodi:nodetypes="cc" />
    <path
       style="fill:#ffffff;stroke:#fd0303;stroke-width:2.96318;stroke-dasharray:none;stroke-opacity:1;marker-end:url(#RoundedArrow-4-2)"
       d="m 109.09517,105.19662 12.5044,-0.2405"
       id="path2016-1-7"
       sodipodi:nodetypes="cc" />
    <path
       style="fill:#ffffff;stroke:#fd0303;stroke-width:2.96318;stroke-dasharray:none;stroke-opacity:1;marker-end:url(#RoundedArrow-7)"
       d="m 108.79375,69.223597 12.80582,0.120252"
       id="path2016-5"
       sodipodi:nodetypes="cc" />
    <path
       id="rect429"
       style="fill:none;stroke:#05fa11;stroke-width:4.93863;stroke-dasharray:none;stroke-opacity:1"
       d="m 85.962086,53.204264 h 12.207195 c 6.011449,0 10.851029,5.144132 10.851029,11.533916 v 44.53373 c 0,6.38978 -4.83958,11.53392 -10.851029,11.53392 H 51.449559 c -6.011466,0 -10.851031,-5.14414 -10.851031,-11.53392 V 64.73818 c 0,-6.389784 4.839565,-11.533916 10.851031,-11.533916 v 0 H 62.39677"
       inkscape:export-filename="KUWP.svg"
       inkscape:export-xdpi="273.89206"
       inkscape:export-ydpi="273.89206" />
  </g>
</svg>
